<?xml version="1.0" encoding="UTF-8" standalone="no"?>
<!-- Created with Inkscape (http://www.inkscape.org/) -->

<svg
   xmlns:dc="http://purl.org/dc/elements/1.1/"
   xmlns:cc="http://creativecommons.org/ns#"
   xmlns:rdf="http://www.w3.org/1999/02/22-rdf-syntax-ns#"
   xmlns:svg="http://www.w3.org/2000/svg"
   xmlns="http://www.w3.org/2000/svg"
   xmlns:sodipodi="http://sodipodi.sourceforge.net/DTD/sodipodi-0.dtd"
   xmlns:inkscape="http://www.inkscape.org/namespaces/inkscape"
   id="svg2"
   version="1.1"
   inkscape:version="0.48.4 r9939"
   width="244.41104"
   height="170.35818"
   sodipodi:docname="Comité_des_travaux_historiques_et_scientifiques_logo.png">
  <metadata
     id="metadata8">
    <rdf:RDF>
      <cc:Work
         rdf:about="">
        <dc:format>image/svg+xml</dc:format>
        <dc:type
           rdf:resource="http://purl.org/dc/dcmitype/StillImage" />
        <dc:title></dc:title>
      </cc:Work>
    </rdf:RDF>
  </metadata>
  <defs
     id="defs6" />
  <sodipodi:namedview
     pagecolor="#ffffff"
     bordercolor="#666666"
     borderopacity="1"
     objecttolerance="10"
     gridtolerance="10"
     guidetolerance="10"
     inkscape:pageopacity="0"
     inkscape:pageshadow="2"
     inkscape:window-width="1366"
     inkscape:window-height="688"
     id="namedview4"
     showgrid="false"
     fit-margin-top="0"
     fit-margin-left="0"
     fit-margin-right="0"
     fit-margin-bottom="0"
     inkscape:zoom="1.7566021"
     inkscape:cx="136.05538"
     inkscape:cy="85.136563"
     inkscape:window-x="0"
     inkscape:window-y="25"
     inkscape:window-maximized="1"
     inkscape:current-layer="svg2" />
  <path
     style="fill:#000000"
     d="m 98.421617,169.05406 c -5.254778,-0.66569 -12.625118,-2.2189 -16.378531,-3.45162 -20.887576,-6.85996 -24.618374,-16.14723 -20.742394,-51.63517 1.065874,-9.75887 1.679782,-18.204046 1.364249,-18.767056 -0.315518,-0.56301 -3.039241,-1.02366 -6.052713,-1.02366 -4.480812,0 -5.396495,-0.43516 -5.025971,-2.38853 0.329413,-1.736602 2.014504,-2.502176 6.173901,-2.804906 6.332527,-0.460878 6.468415,-0.673471 7.969548,-12.469072 0.862726,-6.779074 1.653113,-8.116613 9.073427,-15.354873 11.835755,-11.545351 11.549308,-11.920337 8.800745,11.520564 l -1.720415,14.672435 5.240939,0 c 3.46462,0 5.514871,0.713858 6.049152,2.106183 1.120756,2.920629 -0.06278,3.740539 -6.683315,4.629809 -5.56896,0.74804 -5.770552,0.95254 -6.814547,6.912776 -0.591702,3.37807 -1.222385,14.66173 -1.401525,25.07482 -0.322971,18.7732 -0.296943,18.95444 3.08648,21.49135 5.627049,4.2192 23.275483,5.77259 55.277553,4.86542 49.80729,-1.4119 77.13895,-8.0262 87.71689,-21.22764 6.48799,-8.09711 7.59706,-11.22841 7.59706,-21.44917 0,-11.272426 -3.78223,-20.745386 -10.16792,-25.466539 -4.95348,-3.662267 -4.98443,-5.126276 -0.10837,-5.126276 5.35902,0 15.61212,6.877059 19.4065,13.016509 4.30711,6.96901 4.45139,19.195866 0.33363,28.272066 -4.41622,9.73406 -15.28317,20.32277 -28.76849,28.03187 -19.66508,11.24187 -35.79967,16.99514 -56.49794,20.14605 -13.89819,2.11572 -42.7061,2.32765 -57.727913,0.42466 z M 9.3075603,146.63415 C 5.3870044,143.8881 1.4595134,136.02224 0.32785242,128.64996 -0.95975953,120.26169 1.7154834,99.675194 5.3815584,89.760662 8.1303126,82.326938 9.5103543,80.551928 15.948291,76.169797 24.554145,70.312029 36.225459,65.514129 41.869187,65.514129 c 2.702608,0 4.647382,1.076984 6.186513,3.425993 2.09723,3.200788 2.075802,3.896098 -0.32611,10.577802 -1.928722,5.365402 -3.248655,7.151809 -5.284301,7.151809 -2.063627,0 -2.815825,-1.062244 -3.141103,-4.435853 -0.423698,-4.394415 -0.49545,-4.435852 -7.680931,-4.435852 -4.179978,0 -7.819411,0.722894 -8.589502,1.706097 -3.044783,3.887417 -6.83614,34.090765 -5.304311,42.256095 1.959473,10.44495 11.142084,13.76531 20.094494,7.26602 2.550738,-1.8518 5.992632,-4.36151 7.648651,-5.57716 2.824437,-2.07335 5.860758,-1.76109 5.860758,0.60273 0,0.57846 -3.455966,4.8707 -7.679908,9.53831 -12.007961,13.26923 -26.283763,18.69095 -34.3458767,13.04403 z m 85.7018637,-3.78829 c 0,-0.25646 1.167775,-11.15842 2.595055,-24.22658 3.905141,-35.755181 9.012961,-102.006712 7.946661,-103.073009 -0.51596,-0.515965 -3.36996,0.747134 -6.342223,2.806911 -5.03989,3.49264 -8.294126,3.741458 -8.294126,0.634164 C 90.914791,16.760766 117.90704,0 121.49282,0 c 6.04676,0 6.06763,1.6639774 0.65567,52.287864 -1.5095,14.120014 -2.5405,26.284882 -2.29112,27.03304 0.24939,0.748157 2.5916,-0.190373 5.20493,-2.085615 17.84275,-12.939914 22.71934,-15.815793 26.81871,-15.815793 4.74757,0 8.6444,2.968267 8.63932,6.580662 -0.001,1.260082 -1.17331,10.582674 -2.60343,20.716891 -3.96152,28.072631 -4.61583,36.444551 -2.92972,37.486611 0.81158,0.50158 3.94849,-1.58575 6.97092,-4.63855 5.93936,-5.999 8.1196,-6.86752 8.1196,-3.23447 0,3.12923 -21.16401,23.39545 -25.59263,24.50696 -2.69073,0.67533 -4.12481,0.15194 -6.02984,-2.20066 -3.14937,-3.88931 -3.12474,-7.69104 0.23028,-35.54137 3.32766,-27.623134 3.37466,-30.027298 0.58715,-30.027298 -4.88986,0 -19.97754,12.92026 -21.51686,18.425842 -0.41977,1.50137 -1.43112,10.100096 -2.24745,19.108286 -2.17499,24.00111 -1.97893,23.44585 -9.65088,27.33351 -5.85525,2.96708 -10.848046,4.30638 -10.848046,2.90995 z M 173.119,140.26821 c -4.43311,-2.13649 -5.2493,-7.29368 -2.4254,-15.32511 3.90602,-11.10905 7.08874,-13.50323 7.82811,-5.88865 0.29907,3.08003 1.45388,4.92112 3.83989,6.12181 4.39695,2.21266 16.08505,2.21086 20.46107,-0.003 6.83418,-3.4577 6.69003,-3.66106 -22.09849,-31.177196 -5.74125,-5.487497 -6.6116,-10.152799 -3.3483,-17.94782 5.29463,-12.647257 31.54692,-25.806821 39.52812,-19.81438 2.38046,1.787294 2.38046,2.213695 0,12.049809 -2.04345,8.443611 -2.93485,10.196947 -5.18413,10.196947 -1.95216,0 -2.91396,-1.15193 -3.41874,-4.094633 -0.64139,-3.739042 -1.22569,-4.132058 -6.7283,-4.525648 -17.1958,-1.229973 -16.70575,3.50289 2.01458,19.457137 15.6552,13.342014 17.51194,16.532984 15.13733,26.014824 -1.9963,7.9712 -14.2836,19.84778 -24.48173,23.66339 -8.51775,3.18691 -16.19258,3.64929 -21.12401,1.27267 z"
     id="path2987"
     inkscape:connector-curvature="0" />
</svg>
